<svg xmlns="http://www.w3.org/2000/svg" xmlns:xlink="http://www.w3.org/1999/xlink" version="1.1" data-diagram-type="DESCRIPTION" style="width:1929px;height:1782px;background:#FFFFFF;" width="1929px" height="1782px" viewBox="0 0 1929 1782" zoomAndPan="magnify" preserveAspectRatio="none" contentStyleType="text/css"><?plantuml 1.2026.8?><defs/><g font-family="sans-serif" lengthAdjust="spacing"><g class="title" data-source-line="7"><text x="781.256" y="22.995" fill="#000" font-size="14" textLength="359.488" font-weight="700">Adressverwaltung v2.5.0 - Systemarchitektur</text></g><!--cluster ext--><g class="cluster" data-qualified-name="ext" id="ent0002" data-source-line="46"><path d="M1203.863,1333.271 C1208.87,1323.115 1217.278,1323.142 1223.546,1331.964 C1228.821,1322.723 1234.333,1322.143 1241.539,1329.923 C1249.663,1321.423 1257.048,1321.03 1263.67,1331.659 C1267.381,1322.611 1276.403,1320.977 1283.127,1328.014 C1289.992,1319.336 1298.164,1317.597 1303.832,1329.235 C1309.973,1317.674 1320.367,1317.159 1327.67,1327.998 C1333.957,1317.364 1341.454,1318.343 1348.319,1327.392 C1352.809,1318.756 1359.909,1316.362 1366.56,1325.126 C1373.488,1314.427 1383.595,1317.526 1387.992,1327.722 C1396.949,1318.686 1404.087,1320.713 1410.492,1330.735 C1416.21,1323.303 1422.908,1322.955 1428.216,1331.199 C1436.585,1319.872 1444.683,1319.921 1451.742,1332.49 C1456.963,1322.834 1466.221,1324.38 1471.159,1332.795 C1481.885,1322.292 1490.999,1325.675 1497,1338.117 C1498.832,1338.769 1499.23,1340.133 1498.137,1341.711 C1515.254,1349.677 1518.093,1360.792 1506.914,1376.001 C1523.082,1395.568 1511.058,1411.8 1490,1415.377 C1491.481,1415.741 1491.837,1416.712 1491.044,1417.986 C1486.237,1428.272 1476.143,1428.772 1469.67,1419.839 C1464.412,1430.337 1455.835,1429.335 1449.557,1420.922 C1442.961,1430.278 1436.789,1429.547 1430.69,1420.415 C1425.592,1431.093 1416.998,1432.813 1408.94,1423.663 C1403.151,1433.491 1393.814,1430.998 1389.816,1421.857 C1382.936,1434.178 1373.764,1433.354 1365.961,1422.821 C1362.055,1433.266 1353.376,1433.911 1347.105,1425.142 C1340.601,1434.276 1331.233,1433.9 1326.835,1423.01 C1320.331,1433.195 1313.364,1433.309 1306.568,1423.303 C1298.832,1434.308 1289.368,1433.212 1283.24,1421.641 C1276.575,1429.441 1268.867,1429.263 1264.838,1418.96 C1259.917,1429.16 1250.056,1429.026 1244.859,1419.237 C1236.657,1428.692 1229.765,1428.934 1222.623,1418.076 C1209.36,1427.969 1197.515,1425.203 1193,1408.377 C1194.436,1408.017 1194.953,1408.565 1194.829,1409.982 C1175.799,1402.166 1171.721,1390.06 1186.36,1374.261 C1167.918,1352.729 1174.732,1338.83 1200,1331.117 C1202.126,1329.828 1203.727,1330.991 1203.863,1333.271" style="stroke:#94A3B8;stroke-width:1;" fill="#F8FAFC"/><text x="1286.303" y="1348.184" fill="#000" font-size="13" textLength="117.394" font-weight="700">Externe Dienste</text></g><!--cluster compose--><g class="cluster" data-qualified-name="compose" id="ent0005" data-source-line="51"><rect x="7" y="149.057" width="1154" height="1482.72" fill="#F8FAFC" style="stroke:#94A3B8;stroke-width:1;" rx="2.5" ry="2.5"/><text x="522.682" y="163.124" fill="#000" font-size="13" textLength="122.637" font-weight="700">Docker Compose</text></g><!--cluster nginx--><g class="cluster" data-qualified-name="compose.nginx" id="ent0006" data-source-line="53"><polygon points="661,201.057,671,191.057,1062,191.057,1062,301.327,1052,311.327,661,311.327,661,201.057" fill="#EFF6FF" style="stroke:#1E40AF;stroke-width:1;stroke-linejoin:miter;stroke-miterlimit:10;"/><line x1="1052" y1="201.057" x2="1062" y2="191.057" style="stroke:#1E40AF;stroke-width:1;"/><line x1="661" y1="201.057" x2="1052" y2="201.057" style="stroke:#1E40AF;stroke-width:1;"/><line x1="1052" y1="201.057" x2="1052" y2="311.327" style="stroke:#1E40AF;stroke-width:1;"/><text x="737.802" y="216.124" fill="#000" font-size="13" textLength="239.396" font-weight="700">nginx  (adressverwaltung-nginx)</text><text x="694.886" y="231.257" fill="#000" font-size="13" textLength="325.229" font-weight="700">nginx:alpine · :80 → :443 · TLS-Terminierung</text></g><!--cluster frontend--><g class="cluster" data-qualified-name="compose.frontend" id="ent0008" data-source-line="57"><polygon points="757,345.327,767,335.327,1127,335.327,1127,926.917,1117,936.917,757,936.917,757,345.327" fill="#EFF6FF" style="stroke:#1E40AF;stroke-width:1;stroke-linejoin:miter;stroke-miterlimit:10;"/><line x1="1117" y1="345.327" x2="1127" y2="335.327" style="stroke:#1E40AF;stroke-width:1;"/><line x1="757" y1="345.327" x2="1117" y2="345.327" style="stroke:#1E40AF;stroke-width:1;"/><line x1="1117" y1="345.327" x2="1117" y2="936.917" style="stroke:#1E40AF;stroke-width:1;"/><text x="795.114" y="360.394" fill="#000" font-size="13" textLength="285.771" font-weight="700">frontend  (adressverwaltung-frontend)</text><text x="790.89" y="375.527" fill="#000" font-size="13" textLength="294.22" font-weight="700">Next.js 15 · Node 22 · :3000 (nur intern)</text></g><!--cluster backend--><g class="cluster" data-qualified-name="compose.backend" id="ent0014" data-source-line="65"><polygon points="31,811.517,41,801.517,733,801.517,733,1428.507,723,1438.507,31,1438.507,31,811.517" fill="#EFF6FF" style="stroke:#1E40AF;stroke-width:1;stroke-linejoin:miter;stroke-miterlimit:10;"/><line x1="723" y1="811.517" x2="733" y2="801.517" style="stroke:#1E40AF;stroke-width:1;"/><line x1="31" y1="811.517" x2="723" y2="811.517" style="stroke:#1E40AF;stroke-width:1;"/><line x1="723" y1="811.517" x2="723" y2="1438.507" style="stroke:#1E40AF;stroke-width:1;"/><text x="237.152" y="826.584" fill="#000" font-size="13" textLength="281.696" font-weight="700">backend  (adressverwaltung-backend)</text><text x="240.595" y="841.717" fill="#000" font-size="13" textLength="274.809" font-weight="700">ASP.NET Core 10 · :8080 (Host :5000)</text></g><!--cluster db--><g class="cluster" data-qualified-name="compose.db" id="ent0022" data-source-line="75"><path d="M926,1472.507 C926,1462.507 1031.5,1462.507 1031.5,1462.507 C1031.5,1462.507 1137,1462.507 1137,1472.507 L1137,1597.777 C1137,1607.777 1031.5,1607.777 1031.5,1607.777 C1031.5,1607.777 926,1607.777 926,1597.777 L926,1472.507" style="stroke:#166534;stroke-width:1;" fill="#F0FDF4"/><path d="M926,1472.507 C926,1482.507 1031.5,1482.507 1031.5,1482.507 C1031.5,1482.507 1137,1482.507 1137,1472.507" style="stroke:#166534;stroke-width:1;" fill="none"/><text x="933.848" y="1496.574" fill="#000" font-size="13" textLength="195.305" font-weight="700">db  (adressverwaltung-db)</text><text x="949.685" y="1511.707" fill="#000" font-size="13" textLength="163.63" font-weight="700">PostgreSQL 16 · :5432</text><text x="947.644" y="1526.839" fill="#000" font-size="13" textLength="167.711" font-weight="700">Volume: postgres-data</text></g><!--cluster scripts--><g class="cluster" data-qualified-name="scripts" id="ent0024" data-source-line="80"><rect x="1529" y="1315.547" width="386" height="115.4" fill="#F8FAFC" style="stroke:#94A3B8;stroke-width:1;" rx="2.5" ry="2.5"/><text x="1654.528" y="1329.614" fill="#000" font-size="13" textLength="134.945" font-weight="700">Hilfsskripte (Host)</text></g><!--entity smtp--><g class="entity" data-qualified-name="ext.smtp" id="ent0003" data-source-line="47"><rect x="1200.71" y="1364.677" width="102.57" height="35.133" fill="#FFF" style="stroke:#1E40AF;stroke-width:0.5;" rx="2.5" ry="2.5"/><text x="1210.71" y="1386.744" fill="#000" font-size="13" textLength="82.57">SMTP-Server</text></g><!--entity google--><g class="entity" data-qualified-name="ext.google" id="ent0004" data-source-line="48"><rect x="1353.26" y="1357.117" width="135.483" height="50.266" fill="#FFF" style="stroke:#1E40AF;stroke-width:0.5;" rx="2.5" ry="2.5"/><text x="1363.26" y="1379.184" fill="#000" font-size="13" textLength="115.483">Google OAuth 2.0</text><text x="1363.26" y="1394.317" fill="#000" font-size="13" textLength="62.829">(optional)</text></g><!--entity proxy--><g class="entity" data-qualified-name="compose.nginx.proxy" id="ent0007" data-source-line="54"><rect x="792.68" y="245.057" width="180.64" height="50.266" fill="#FFF" style="stroke:#1E40AF;stroke-width:0.5;" rx="2.5" ry="2.5"/><text x="802.68" y="267.124" fill="#000" font-size="13" textLength="93.495">Reverse Proxy</text><text x="802.68" y="282.257" fill="#000" font-size="13" textLength="160.64">Routing nach Pfad-Präfix</text></g><!--entity mw--><g class="entity" data-qualified-name="compose.frontend.mw" id="ent0009" data-source-line="58"><rect x="775.46" y="389.327" width="215.076" height="50.266" fill="#FFF" style="stroke:#1E40AF;stroke-width:0.5;" rx="2.5" ry="2.5"/><text x="785.46" y="411.394" fill="#000" font-size="13" textLength="92.333">middleware.ts</text><text x="785.46" y="426.527" fill="#000" font-size="13" textLength="195.076">Route-Schutz · CSP mit Nonce</text></g><!--entity pages--><g class="entity" data-qualified-name="compose.frontend.pages" id="ent0010" data-source-line="59"><rect x="780.1" y="499.587" width="205.802" height="50.266" fill="#FFF" style="stroke:#1E40AF;stroke-width:0.5;" rx="2.5" ry="2.5"/><text x="790.1" y="521.654" fill="#000" font-size="13" textLength="73.195">App Router</text><text x="790.1" y="536.787" fill="#000" font-size="13" textLength="185.802">Server + Client Components</text></g><!--entity nextauth--><g class="entity" data-qualified-name="compose.frontend.nextauth" id="ent0011" data-source-line="60"><rect x="792.89" y="855.517" width="186.226" height="65.398" fill="#FFF" style="stroke:#1E40AF;stroke-width:0.5;" rx="2.5" ry="2.5"/><text x="802.89" y="877.584" fill="#000" font-size="13" textLength="75.499">NextAuth.js</text><text x="802.89" y="892.717" fill="#000" font-size="13" textLength="69.012">/api/auth/*</text><text x="802.89" y="907.849" fill="#000" font-size="13" textLength="166.226">Session-Cookie (JWT, 8 h)</text></g><!--entity api--><g class="entity" data-qualified-name="compose.frontend.api" id="ent0012" data-source-line="61"><rect x="845.11" y="609.857" width="75.79" height="50.266" fill="#FFF" style="stroke:#1E40AF;stroke-width:0.5;" rx="2.5" ry="2.5"/><text x="855.11" y="631.924" fill="#000" font-size="13" textLength="55.688">lib/api.ts</text><text x="855.11" y="647.057" fill="#000" font-size="13" textLength="55.79">apiFetch</text></g><!--entity bproxy--><g class="entity" data-qualified-name="compose.frontend.bproxy" id="ent0013" data-source-line="62"><rect x="772.62" y="720.117" width="226.769" height="65.398" fill="#FFF" style="stroke:#1E40AF;stroke-width:0.5;" rx="2.5" ry="2.5"/><text x="782.62" y="742.184" fill="#000" font-size="13" textLength="135.51">Proxy /api/backend/*</text><text x="782.62" y="757.317" fill="#000" font-size="13" textLength="178.807">hängt den Bearer-Token an</text><text x="782.62" y="772.449" fill="#000" font-size="13" textLength="206.769">(CSRF-Schutz: Header + Origin)</text></g><!--entity jwt--><g class="entity" data-qualified-name="compose.backend.jwt" id="ent0015" data-source-line="66"><rect x="369.15" y="855.517" width="209.693" height="65.398" fill="#FFF" style="stroke:#1E40AF;stroke-width:0.5;" rx="2.5" ry="2.5"/><text x="379.15" y="877.584" fill="#000" font-size="13" textLength="189.693">JWT-Bearer-Authentifizierung</text><text x="379.15" y="892.717" fill="#000" font-size="13" textLength="143.013">+ TokenUserValidator</text><text x="379.15" y="907.849" fill="#000" font-size="13" textLength="143.781">(Rolle, Token-Version)</text></g><!--entity authc--><g class="entity" data-qualified-name="compose.backend.authc" id="ent0016" data-source-line="67"><rect x="525.36" y="1106.317" width="191.285" height="65.398" fill="#FFF" style="stroke:#1E40AF;stroke-width:0.5;" rx="2.5" ry="2.5"/><text x="535.36" y="1128.384" fill="#000" font-size="13" textLength="94.701">AuthController</text><text x="535.36" y="1143.517" fill="#000" font-size="13" textLength="171.088">/auth/login · /auth/register</text><text x="535.36" y="1158.649" fill="#000" font-size="13" textLength="171.285">/auth/logout · Kontosperre</text></g><!--entity odata--><g class="entity" data-qualified-name="compose.backend.odata" id="ent0017" data-source-line="68"><rect x="150.59" y="1106.317" width="220.827" height="65.398" fill="#FFF" style="stroke:#1E40AF;stroke-width:0.5;" rx="2.5" ry="2.5"/><text x="160.59" y="1128.384" fill="#000" font-size="13" textLength="110.195">OData-Controller</text><text x="160.59" y="1143.517" fill="#000" font-size="13" textLength="200.827">/odata/Adressen · /odata/Cities</text><text x="160.59" y="1158.649" fill="#000" font-size="13" textLength="176.287">(ODataCrudController&lt;T>)</text></g><!--entity settingsc--><g class="entity" data-qualified-name="compose.backend.settingsc" id="ent0018" data-source-line="69"><rect x="47.23" y="1231.717" width="187.54" height="50.266" fill="#FFF" style="stroke:#1E40AF;stroke-width:0.5;" rx="2.5" ry="2.5"/><text x="57.23" y="1253.784" fill="#000" font-size="13" textLength="117.552">SettingsController</text><text x="57.23" y="1268.917" fill="#000" font-size="13" textLength="167.54">/settings (PUT nur Admin)</text></g><!--entity usersc--><g class="entity" data-qualified-name="compose.backend.usersc" id="ent0019" data-source-line="70"><rect x="398.13" y="980.917" width="151.733" height="65.398" fill="#FFF" style="stroke:#1E40AF;stroke-width:0.5;" rx="2.5" ry="2.5"/><text x="408.13" y="1002.984" fill="#000" font-size="13" textLength="100.636">UsersController</text><text x="408.13" y="1018.117" fill="#000" font-size="13" textLength="121.399">/users (nur Admin)</text><text x="408.13" y="1033.249" fill="#000" font-size="13" textLength="131.733">Benutzerverwaltung</text></g><!--entity notify--><g class="entity" data-qualified-name="compose.backend.notify" id="ent0020" data-source-line="71"><rect x="472.65" y="1231.717" width="178.704" height="50.266" fill="#FFF" style="stroke:#1E40AF;stroke-width:0.5;" rx="2.5" ry="2.5"/><text x="482.65" y="1253.784" fill="#000" font-size="13" textLength="158.704">EmailNotificationService</text><text x="482.65" y="1268.917" fill="#000" font-size="13" textLength="148.662">→ EmailService (SMTP)</text></g><!--entity dbctx--><g class="entity" data-qualified-name="compose.backend.dbctx" id="ent0021" data-source-line="72"><rect x="297.55" y="1341.977" width="248.89" height="80.531" fill="#FFF" style="stroke:#1E40AF;stroke-width:0.5;" rx="2.5" ry="2.5"/><text x="307.55" y="1364.044" fill="#000" font-size="13" textLength="121.45">AdresseDbContext</text><text x="307.55" y="1379.177" fill="#000" font-size="13" textLength="162.735">EF Core 10 · Audit-Felder</text><text x="307.55" y="1394.309" fill="#000" font-size="13" textLength="228.89">EnsureCreated + SchemaUpgrader</text><text x="307.55" y="1409.442" fill="#000" font-size="13" textLength="79.13">+ DbSeeder</text></g><!--entity tables--><g class="entity" data-qualified-name="compose.db.tables" id="ent0023" data-source-line="76"><rect x="992.58" y="1541.507" width="128.837" height="50.266" fill="#FFF" style="stroke:#1E40AF;stroke-width:0.5;" rx="2.5" ry="2.5"/><text x="1002.58" y="1563.574" fill="#000" font-size="13" textLength="108.837">Adressen · Cities</text><text x="1002.58" y="1578.707" fill="#000" font-size="13" textLength="102.121">Users · Settings</text></g><!--entity usersh--><g class="entity" data-qualified-name="scripts.usersh" id="ent0025" data-source-line="81"><rect x="1544.6" y="1349.547" width="140.802" height="65.398" fill="#FFF" style="stroke:#1E40AF;stroke-width:0.5;" rx="2.5" ry="2.5"/><text x="1554.6" y="1371.614" fill="#000" font-size="13" textLength="95.551">create_user.sh</text><text x="1554.6" y="1386.747" fill="#000" font-size="13" textLength="120.802">reset_password.sh</text><text x="1554.6" y="1401.879" fill="#000" font-size="13" textLength="115.108">create_db_role.sh</text></g><!--entity importpy--><g class="entity" data-qualified-name="scripts.importpy" id="ent0026" data-source-line="82"><rect x="1735.07" y="1357.117" width="163.857" height="50.266" fill="#FFF" style="stroke:#1E40AF;stroke-width:0.5;" rx="2.5" ry="2.5"/><text x="1745.07" y="1379.184" fill="#000" font-size="13" textLength="103.74">import_cities.py</text><text x="1745.07" y="1394.317" fill="#000" font-size="13" textLength="143.857">(PLZ-Verzeichnis CSV)</text></g><!--entity user--><g class="entity" data-qualified-name="user" id="ent0001" data-source-line="44"><ellipse cx="883.004" cy="51.297" rx="8" ry="8" fill="#EFF6FF" style="stroke:#1E40AF;stroke-width:0.5;"/><path d="M883.004,59.297 L883.004,86.297 M870.004,67.297 L896.004,67.297 M883.004,86.297 L870.004,101.297 M883.004,86.297 L896.004,101.297" style="stroke:#1E40AF;stroke-width:0.5;" fill="none"/><text x="851.45" y="114.864" fill="#000" font-size="13" textLength="58.659">Benutzer</text><text x="851.45" y="129.997" fill="#000" font-size="13" textLength="63.108">(Browser)</text></g><!--link user to proxy--><g class="link" data-entity-1="ent0001" data-entity-2="ent0007" id="lnk27" data-source-line="86" data-link-type="dependency"><path d="M883,133.447 C883,168.557 883,210.847 883,239.607" style="stroke:#475569;stroke-width:1;" fill="none" id="user-to-proxy"/><polygon points="883,244.607,887,235.607,883,239.607,879,235.607,883,244.607" fill="#475569" style="stroke:#475569;stroke-width:1;stroke-linejoin:miter;stroke-miterlimit:10;"/><text x="802.904" y="173.237" fill="#334155" font-size="11" textLength="63.524">HTTPS :443</text><text x="787" y="186.042" fill="#334155" font-size="11" textLength="95.332">(HTTP :80 → 301)</text></g><!--link proxy to mw--><g class="link" data-entity-1="ent0007" data-entity-2="ent0009" id="lnk28" data-source-line="89" data-link-type="dependency"><path d="M883,295.647 C883,322.017 883,357.977 883,384.247" style="stroke:#475569;stroke-width:1;" fill="none" id="proxy-to-mw"/><polygon points="883,389.247,887,380.247,883,384.247,879,380.247,883,389.247" fill="#475569" style="stroke:#475569;stroke-width:1;stroke-linejoin:miter;stroke-miterlimit:10;"/><text x="778.085" y="313.657" fill="#334155" font-size="11" textLength="99.865">alle übrigen Pfade</text><text x="774" y="326.462" fill="#334155" font-size="11" textLength="108.034">(Seiten, /api/auth/*,</text><text x="785.741" y="339.267" fill="#334155" font-size="11" textLength="84.552">/api/backend/*)</text></g><!--link proxy to jwt--><g class="link" data-entity-1="ent0007" data-entity-2="ent0015" id="lnk29" data-source-line="90" data-link-type="dependency"><path d="M792.36,261.777 C662.51,261.777 439.05,261.777 439.05,261.777 C439.05,261.777 439.05,721.527 439.05,850.417" style="stroke:#475569;stroke-width:1;" fill="none" id="proxy-to-jwt"/><polygon points="439.05,855.417,443.05,846.417,439.05,850.417,435.05,846.417,439.05,855.417" fill="#475569" style="stroke:#475569;stroke-width:1;stroke-linejoin:miter;stroke-miterlimit:10;"/><text x="278.05" y="366.157" fill="#334155" font-size="11" textLength="160.386">/odata/*  ·  /settings  ·  /users</text><text x="292.359" y="378.962" fill="#334155" font-size="11" textLength="131.769">(nur direkte API-Clients)</text></g><!--link proxy to authc--><g class="link" data-entity-1="ent0007" data-entity-2="ent0016" id="lnk30" data-source-line="91" data-link-type="dependency"><path d="M792.32,278.777 C717.92,278.777 624.78,278.777 624.78,278.777 C624.78,278.777 624.78,942.727 624.78,1100.817" style="stroke:#475569;stroke-width:1;" fill="none" id="proxy-to-authc"/><polygon points="624.78,1105.817,628.78,1096.817,624.78,1100.817,620.78,1096.817,624.78,1105.817" fill="#475569" style="stroke:#475569;stroke-width:1;stroke-linejoin:miter;stroke-miterlimit:10;"/><text x="586.78" y="605.737" fill="#334155" font-size="11" textLength="37.909">/auth/*</text></g><!--link mw to pages--><g class="link" data-entity-1="ent0009" data-entity-2="ent0010" id="lnk31" data-source-line="94" data-link-type="dependency"><path d="M883,440.027 C883,457.847 883,476.507 883,494.287" style="stroke:#475569;stroke-width:1;" fill="none" id="mw-to-pages"/><polygon points="883,499.287,887,490.287,883,494.287,879,490.287,883,499.287" fill="#475569" style="stroke:#475569;stroke-width:1;stroke-linejoin:miter;stroke-miterlimit:10;"/><text x="774" y="453.867" fill="#334155" font-size="11" textLength="108.131">Session vorhanden,</text><text x="789.971" y="466.672" fill="#334155" font-size="11" textLength="76.189">sonst → /login</text></g><!--link pages to api--><g class="link" data-entity-1="ent0010" data-entity-2="ent0012" id="lnk32" data-source-line="95" data-link-type="dependency"><path d="M883,550.297 C883,568.107 883,586.767 883,604.557" style="stroke:#475569;stroke-width:1;" fill="none" id="pages-to-api"/><polygon points="883,609.557,887,600.557,883,604.557,879,600.557,883,609.557" fill="#475569" style="stroke:#475569;stroke-width:1;stroke-linejoin:miter;stroke-miterlimit:10;"/></g><!--link api to bproxy--><g class="link" data-entity-1="ent0012" data-entity-2="ent0013" id="lnk33" data-source-line="96" data-link-type="dependency"><path d="M883,660.557 C883,677.887 883,695.947 883,714.687" style="stroke:#475569;stroke-width:1;" fill="none" id="api-to-bproxy"/><polygon points="883,719.687,887,710.687,883,714.687,879,710.687,883,719.687" fill="#475569" style="stroke:#475569;stroke-width:1;stroke-linejoin:miter;stroke-miterlimit:10;"/><text x="733.985" y="674.327" fill="#334155" font-size="11" textLength="108.641">Client Components:</text><text x="694" y="687.132" fill="#334155" font-size="11" textLength="188.611">/api/backend/* mit Session-Cookie</text></g><!--link bproxy to nextauth--><g class="link" data-entity-1="ent0013" data-entity-2="ent0011" id="lnk34" data-source-line="97" data-link-type="dependency"><path d="M886,785.937 C886,807.077 886,829.367 886,850.437" style="stroke:#475569;stroke-width:1;stroke-dasharray:7,7;" fill="none" id="bproxy-to-nextauth"/><polygon points="886,855.437,890,846.437,886,850.437,882,846.437,886,855.437" fill="#475569" style="stroke:#475569;stroke-width:1;stroke-linejoin:miter;stroke-miterlimit:10;"/><text x="762" y="804.897" fill="#334155" font-size="11" textLength="123.138">Backend-JWT aus dem</text><text x="765.537" y="817.702" fill="#334155" font-size="11" textLength="116.064">Session-Cookie lesen</text></g><!--link nextauth to authc--><g class="link" data-entity-1="ent0011" data-entity-2="ent0016" id="lnk35" data-source-line="100" data-link-type="dependency"><path d="M792.51,898.777 C734.41,898.777 670.71,898.777 670.71,898.777 C670.71,898.777 670.71,1034.957 670.71,1100.867" style="stroke:#475569;stroke-width:1;" fill="none" id="nextauth-to-authc"/><polygon points="670.71,1105.867,674.71,1096.867,670.71,1100.867,666.71,1096.867,670.71,1105.867" fill="#475569" style="stroke:#475569;stroke-width:1;stroke-linejoin:miter;stroke-miterlimit:10;"/><text x="567.6" y="952.627" fill="#334155" font-size="11" textLength="91.695">POST /auth/login</text><text x="563.606" y="965.432" fill="#334155" font-size="11" textLength="99.682">POST /auth/logout</text><text x="556.71" y="978.237" fill="#334155" font-size="11" textLength="113.475">(INTERNAL_API_URL)</text></g><!--link api to jwt--><g class="link" data-entity-1="ent0012" data-entity-2="ent0015" id="lnk36" data-source-line="101" data-link-type="dependency"><path d="M844.73,634.777 C749.39,634.777 508.95,634.777 508.95,634.777 C508.95,634.777 508.95,781.387 508.95,850.087" style="stroke:#475569;stroke-width:1;" fill="none" id="api-to-jwt"/><polygon points="508.95,855.087,512.95,846.087,508.95,850.087,504.95,846.087,508.95,855.087" fill="#475569" style="stroke:#475569;stroke-width:1;stroke-linejoin:miter;stroke-miterlimit:10;"/><text x="451.118" y="605.987" fill="#334155" font-size="11" textLength="112.868">Server Components:</text><text x="451.422" y="618.792" fill="#334155" font-size="11" textLength="112.261">http://backend:8080</text><text x="448.68" y="631.597" fill="#334155" font-size="11" textLength="117.745">Authorization: Bearer</text></g><!--link bproxy to jwt--><g class="link" data-entity-1="ent0013" data-entity-2="ent0015" id="lnk37" data-source-line="102" data-link-type="dependency"><path d="M782.75,785.977 C782.75,822.997 782.75,877.777 782.75,877.777 C782.75,877.777 673.47,877.777 583.96,877.777" style="stroke:#475569;stroke-width:1;" fill="none" id="bproxy-to-jwt"/><polygon points="578.96,877.777,587.96,881.777,583.96,877.777,587.96,873.777,578.96,877.777" fill="#475569" style="stroke:#475569;stroke-width:1;stroke-linejoin:miter;stroke-miterlimit:10;"/><text x="611.502" y="861.987" fill="#334155" font-size="11" textLength="112.261">http://backend:8080</text><text x="608.76" y="874.792" fill="#334155" font-size="11" textLength="117.745">Authorization: Bearer</text></g><!--link nextauth to google--><g class="link" data-entity-1="ent0011" data-entity-2="ent0004" id="lnk38" data-source-line="103" data-link-type="dependency"><path d="M886,921.077 C886,1028.237 886,1360.777 886,1360.777 C886,1360.777 1203.87,1360.777 1347.97,1360.777" style="stroke:#475569;stroke-width:1;stroke-dasharray:7,7;" fill="none" id="nextauth-to-google"/><polygon points="1352.97,1360.777,1343.97,1356.777,1347.97,1360.777,1343.97,1364.777,1352.97,1360.777" fill="#475569" style="stroke:#475569;stroke-width:1;stroke-linejoin:miter;stroke-miterlimit:10;"/><text x="830.63" y="1357.987" fill="#334155" font-size="11" textLength="68.277">OAuth-Login</text></g><!--link jwt to odata--><g class="link" data-entity-1="ent0015" data-entity-2="ent0017" id="lnk39" data-source-line="106" data-link-type="dependency"><path d="M378.09,921.327 C378.09,985.987 378.09,1122.777 378.09,1122.777 C378.09,1122.777 380.78,1122.777 376.8,1122.777" style="stroke:#475569;stroke-width:1;" fill="none" id="jwt-to-odata"/><polygon points="371.8,1122.777,380.8,1126.777,376.8,1122.777,380.8,1118.777,371.8,1122.777" fill="#475569" style="stroke:#475569;stroke-width:1;stroke-linejoin:miter;stroke-miterlimit:10;"/></g><!--link jwt to settingsc--><g class="link" data-entity-1="ent0015" data-entity-2="ent0018" id="lnk40" data-source-line="107" data-link-type="dependency"><path d="M384.77,921.167 C384.77,1010.177 384.77,1248.777 384.77,1248.777 C384.77,1248.777 308.85,1248.777 240.25,1248.777" style="stroke:#475569;stroke-width:1;" fill="none" id="jwt-to-settingsc"/><polygon points="235.25,1248.777,244.25,1252.777,240.25,1248.777,244.25,1244.777,235.25,1248.777" fill="#475569" style="stroke:#475569;stroke-width:1;stroke-linejoin:miter;stroke-miterlimit:10;"/></g><!--link jwt to usersc--><g class="link" data-entity-1="ent0015" data-entity-2="ent0019" id="lnk41" data-source-line="108" data-link-type="dependency"><path d="M474,921.167 C474,939.447 474,957.137 474,975.457" style="stroke:#475569;stroke-width:1;" fill="none" id="jwt-to-usersc"/><polygon points="474,980.457,478,971.457,474,975.457,470,971.457,474,980.457" fill="#475569" style="stroke:#475569;stroke-width:1;stroke-linejoin:miter;stroke-miterlimit:10;"/></g><!--link jwt to dbctx--><g class="link" data-entity-1="ent0015" data-entity-2="ent0021" id="lnk42" data-source-line="109" data-link-type="dependency"><path d="M391.45,921.397 C391.45,1009.017 391.45,1241.377 391.45,1336.757" style="stroke:#475569;stroke-width:1;" fill="none" id="jwt-to-dbctx"/><polygon points="391.45,1341.757,395.45,1332.757,391.45,1336.757,387.45,1332.757,391.45,1341.757" fill="#475569" style="stroke:#475569;stroke-width:1;stroke-linejoin:miter;stroke-miterlimit:10;"/><text x="397.507" y="1115.787" fill="#334155" font-size="11" textLength="108.303">Benutzer, Rolle und</text><text x="392.45" y="1128.592" fill="#334155" font-size="11" textLength="118.417">Token-Version prüfen</text></g><!--link odata to notify--><g class="link" data-entity-1="ent0017" data-entity-2="ent0020" id="lnk43" data-source-line="110" data-link-type="dependency"><path d="M371.58,1138.777 C430.2,1138.777 490.22,1138.777 490.22,1138.777 C490.22,1138.777 490.22,1191.507 490.22,1226.227" style="stroke:#475569;stroke-width:1;" fill="none" id="odata-to-notify"/><polygon points="490.22,1231.227,494.22,1222.227,490.22,1226.227,486.22,1222.227,490.22,1231.227" fill="#475569" style="stroke:#475569;stroke-width:1;stroke-linejoin:miter;stroke-miterlimit:10;"/><text x="400.12" y="1149.987" fill="#334155" font-size="11" textLength="76.517">POST Adresse</text></g><!--link odata to dbctx--><g class="link" data-entity-1="ent0017" data-entity-2="ent0021" id="lnk44" data-source-line="111" data-link-type="dependency"><path d="M346.79,1172.067 C346.79,1216.107 346.79,1288.967 346.79,1336.557" style="stroke:#475569;stroke-width:1;" fill="none" id="odata-to-dbctx"/><polygon points="346.79,1341.557,350.79,1332.557,346.79,1336.557,342.79,1332.557,346.79,1341.557" fill="#475569" style="stroke:#475569;stroke-width:1;stroke-linejoin:miter;stroke-miterlimit:10;"/></g><!--link settingsc to dbctx--><g class="link" data-entity-1="ent0018" data-entity-2="ent0021" id="lnk45" data-source-line="112" data-link-type="dependency"><path d="M235.04,1264.777 C279.15,1264.777 322.17,1264.777 322.17,1264.777 C322.17,1264.777 322.17,1302.567 322.17,1336.487" style="stroke:#475569;stroke-width:1;" fill="none" id="settingsc-to-dbctx"/><polygon points="322.17,1341.487,326.17,1332.487,322.17,1336.487,318.17,1332.487,322.17,1341.487" fill="#475569" style="stroke:#475569;stroke-width:1;stroke-linejoin:miter;stroke-miterlimit:10;"/></g><!--link usersc to dbctx--><g class="link" data-entity-1="ent0019" data-entity-2="ent0021" id="lnk46" data-source-line="113" data-link-type="dependency"><path d="M422.97,1046.657 C422.97,1114.247 422.97,1263.147 422.97,1336.677" style="stroke:#475569;stroke-width:1;" fill="none" id="usersc-to-dbctx"/><polygon points="422.97,1341.677,426.97,1332.677,422.97,1336.677,418.97,1332.677,422.97,1341.677" fill="#475569" style="stroke:#475569;stroke-width:1;stroke-linejoin:miter;stroke-miterlimit:10;"/></g><!--link usersc to authc--><g class="link" data-entity-1="ent0019" data-entity-2="ent0016" id="lnk47" data-source-line="114" data-link-type="dependency"><path d="M537.61,1046.567 C537.61,1064.847 537.61,1082.537 537.61,1100.857" style="stroke:#475569;stroke-width:1;stroke-dasharray:7,7;" fill="none" id="usersc-to-authc"/><polygon points="537.61,1105.857,541.61,1096.857,537.61,1100.857,533.61,1096.857,537.61,1105.857" fill="#475569" style="stroke:#475569;stroke-width:1;stroke-linejoin:miter;stroke-miterlimit:10;"/><text x="459.151" y="1060.417" fill="#334155" font-size="11" textLength="67.251">Kontosperre</text><text x="448.61" y="1073.222" fill="#334155" font-size="11" textLength="88.333">lesen, aufheben</text></g><!--link usersc to notify--><g class="link" data-entity-1="ent0019" data-entity-2="ent0020" id="lnk48" data-source-line="115" data-link-type="dependency"><path d="M507.79,1046.677 C507.79,1095.767 507.79,1181.927 507.79,1226.287" style="stroke:#475569;stroke-width:1;" fill="none" id="usersc-to-notify"/><polygon points="507.79,1231.287,511.79,1222.287,507.79,1226.287,503.79,1222.287,507.79,1231.287" fill="#475569" style="stroke:#475569;stroke-width:1;stroke-linejoin:miter;stroke-miterlimit:10;"/><text x="448.79" y="1150.187" fill="#334155" font-size="11" textLength="78.155">POST, DELETE</text><text x="463.05" y="1162.992" fill="#334155" font-size="11" textLength="49.634">Benutzer</text></g><!--link authc to notify--><g class="link" data-entity-1="ent0016" data-entity-2="ent0020" id="lnk49" data-source-line="116" data-link-type="dependency"><path d="M588.35,1172.147 C588.35,1190.937 588.35,1209.087 588.35,1226.427" style="stroke:#475569;stroke-width:1;" fill="none" id="authc-to-notify"/><polygon points="588.35,1231.427,592.35,1222.427,588.35,1226.427,584.35,1222.427,588.35,1231.427" fill="#475569" style="stroke:#475569;stroke-width:1;stroke-linejoin:miter;stroke-miterlimit:10;"/><text x="514.155" y="1185.997" fill="#334155" font-size="11" textLength="66.773">Sperre nach</text><text x="507.35" y="1198.802" fill="#334155" font-size="11" textLength="80.384">Fehlversuchen</text></g><!--link authc to dbctx--><g class="link" data-entity-1="ent0016" data-entity-2="ent0021" id="lnk50" data-source-line="117" data-link-type="dependency"><path d="M525.03,1155.777 C485.08,1155.777 447.81,1155.777 447.81,1155.777 C447.81,1155.777 447.81,1271.297 447.81,1336.497" style="stroke:#475569;stroke-width:1;" fill="none" id="authc-to-dbctx"/><polygon points="447.81,1341.497,451.81,1332.497,447.81,1336.497,443.81,1332.497,447.81,1341.497" fill="#475569" style="stroke:#475569;stroke-width:1;stroke-linejoin:miter;stroke-miterlimit:10;"/><text x="354.81" y="1194.237" fill="#334155" font-size="11" textLength="92.716">Benutzer prüfen,</text><text x="360.946" y="1207.042" fill="#334155" font-size="11" textLength="80.443">JWT ausstellen</text></g><!--link notify to dbctx--><g class="link" data-entity-1="ent0020" data-entity-2="ent0021" id="lnk51" data-source-line="118" data-link-type="dependency"><path d="M509.55,1282.227 C509.55,1299.257 509.55,1317.067 509.55,1336.607" style="stroke:#475569;stroke-width:1;" fill="none" id="notify-to-dbctx"/><polygon points="509.55,1341.607,513.55,1332.607,509.55,1336.607,505.55,1332.607,509.55,1341.607" fill="#475569" style="stroke:#475569;stroke-width:1;stroke-linejoin:miter;stroke-miterlimit:10;"/><text x="415.55" y="1296.127" fill="#334155" font-size="11" textLength="93.634">NotificationEmail</text><text x="447.72" y="1308.932" fill="#334155" font-size="11" textLength="29.294">lesen</text></g><!--link notify to smtp--><g class="link" data-entity-1="ent0020" data-entity-2="ent0003" id="lnk52" data-source-line="119" data-link-type="dependency"><path d="M598.9,1282.427 C598.9,1318.977 598.9,1381.777 598.9,1381.777 C598.9,1381.777 1041.26,1381.777 1195.48,1381.777" style="stroke:#475569;stroke-width:1;stroke-dasharray:7,7;" fill="none" id="notify-to-smtp"/><polygon points="1200.48,1381.777,1191.48,1377.777,1195.48,1381.777,1191.48,1385.777,1200.48,1381.777" fill="#475569" style="stroke:#475569;stroke-width:1;stroke-linejoin:miter;stroke-miterlimit:10;"/><text x="775.734" y="1392.987" fill="#334155" font-size="11" textLength="37.232">E-Mail-</text><text x="739.02" y="1405.792" fill="#334155" font-size="11" textLength="110.661">Benachrichtigungen</text></g><!--link dbctx to tables--><g class="link" data-entity-1="ent0021" data-entity-2="ent0023" id="lnk53" data-source-line="122" data-link-type="dependency"><path d="M546.7,1418.777 C727.24,1418.777 1040.06,1418.777 1040.06,1418.777 C1040.06,1418.777 1040.06,1493.947 1040.06,1536.227" style="stroke:#475569;stroke-width:1;" fill="none" id="dbctx-to-tables"/><polygon points="1040.06,1541.227,1044.06,1532.227,1040.06,1536.227,1036.06,1532.227,1040.06,1541.227" fill="#475569" style="stroke:#475569;stroke-width:1;stroke-linejoin:miter;stroke-miterlimit:10;"/><text x="753.551" y="1429.987" fill="#334155" font-size="11" textLength="37.963">Npgsql</text><text x="690.61" y="1442.792" fill="#334155" font-size="11" textLength="163.845">(Rolle adressverwaltung_app)</text></g><!--link usersh to tables--><g class="link" data-entity-1="ent0025" data-entity-2="ent0023" id="lnk54" data-source-line="125" data-link-type="dependency"><path d="M1544.33,1410.777 C1399.13,1410.777 1080.74,1410.777 1080.74,1410.777 C1080.74,1410.777 1080.74,1492.087 1080.74,1536.257" style="stroke:#475569;stroke-width:1;stroke-dasharray:7,7;" fill="none" id="usersh-to-tables"/><polygon points="1080.74,1541.257,1084.74,1532.257,1080.74,1536.257,1076.74,1532.257,1080.74,1541.257" fill="#475569" style="stroke:#475569;stroke-width:1;stroke-linejoin:miter;stroke-miterlimit:10;"/><text x="1141.7" y="1421.987" fill="#334155" font-size="11" textLength="93.258">docker exec psql</text><text x="1130.3" y="1434.792" fill="#334155" font-size="11" textLength="116.059">(Superuser postgres)</text></g><!--link importpy to tables--><g class="link" data-entity-1="ent0026" data-entity-2="ent0023" id="lnk55" data-source-line="126" data-link-type="dependency"><path d="M1817,1407.517 C1817,1458.057 1817,1566.777 1817,1566.777 C1817,1566.777 1310.59,1566.777 1126.8,1566.777" style="stroke:#475569;stroke-width:1;stroke-dasharray:7,7;" fill="none" id="importpy-to-tables"/><polygon points="1121.8,1566.777,1130.8,1570.777,1126.8,1566.777,1130.8,1562.777,1121.8,1566.777" fill="#475569" style="stroke:#475569;stroke-width:1;stroke-linejoin:miter;stroke-miterlimit:10;"/><text x="1481.086" y="1550.987" fill="#334155" font-size="11" textLength="52.964">psycopg2</text><text x="1467.03" y="1563.792" fill="#334155" font-size="11" textLength="81.077">localhost:5432</text></g><g class="legend" data-source-line="128"><rect x="1489.755" y="1651.777" width="420.245" height="111.781" fill="#DDD" style="stroke:#000;stroke-width:1;" rx="7.5" ry="7.5"/><text x="1499.629" y="1671.772" fill="#000" font-size="14" textLength="37.98" font-weight="700">Linie</text><text x="1608.402" y="1671.772" fill="#000" font-size="14" textLength="86.297" font-weight="700">Bedeutung</text><text x="1499.205" y="1688.069" fill="#000" font-size="14" textLength="99.873">durchgezogen</text><text x="1607.979" y="1688.069" fill="#000" font-size="14" textLength="184.352">Request-Fluss zur Laufzeit</text><text x="1499.205" y="1704.366" fill="#000" font-size="14" textLength="74.491">gestrichelt</text><text x="1607.979" y="1704.366" fill="#000" font-size="14" textLength="217.068">optional / asynchron / Wartung</text><line x1="1494.755" y1="1658.777" x2="1829.497" y2="1658.777" style="stroke:#000;stroke-width:1;"/><line x1="1494.755" y1="1675.074" x2="1829.497" y2="1675.074" style="stroke:#000;stroke-width:1;"/><line x1="1494.755" y1="1691.371" x2="1829.497" y2="1691.371" style="stroke:#000;stroke-width:1;"/><line x1="1494.755" y1="1707.668" x2="1829.497" y2="1707.668" style="stroke:#000;stroke-width:1;"/><line x1="1494.755" y1="1658.777" x2="1494.755" y2="1707.668" style="stroke:#000;stroke-width:1;"/><line x1="1603.528" y1="1658.777" x2="1603.528" y2="1707.668" style="stroke:#000;stroke-width:1;"/><line x1="1829.497" y1="1658.777" x2="1829.497" y2="1707.668" style="stroke:#000;stroke-width:1;"/><text x="1494.755" y="1722.663" fill="#000" font-size="14" textLength="385.779">Client Components rufen die API über /api/backend auf</text><text x="1494.755" y="1738.959" fill="#000" font-size="14" textLength="375.512">(nginx → Next.js → Backend); der Bearer-Token bleibt</text><text x="1494.755" y="1755.256" fill="#000" font-size="14" textLength="410.245">auf dem Server. Server Components direkt backend:8080.</text></g><?plantuml-src pLZTRkF65RxdKnou1LREcfBy8tUZDWl8ifHDwdXLI-i52W76Y1o94rCppCpGVza5SjK7AFe8UOVUvAhx9dcIdZD3IgIaeaZteZPic9mpS_v_lk4B-EepVe8NC7uqbY-PZX9X-QtDDOJGYpKtvexhUvRQN2xWxgZPQRPfz_NNmFKJpnTSTl4T85RHBTUWSmbXg9SGti7UxqVlprj8o9TSMcQ5ajrMp2pRWonbqkRBj5K-G6ZDtG8SkRMbIpF3BIZcismChB0f_qz6eRbROeF0t0gPCSsMO18Mgtk1--SiDRn2YVcSvQaTAcalsPA3OTA4XcintxrfB9uu71vNY95QPagYZyRs4JNKFB9CBjAga5H8RXyp3ahRH5K8KiNSy0mwxSgYPlAM5a-hYpsjrNrVfKh3xqx-qEcSVhb99EsA3SV79uUTpguDNlt3ghHIN_Wn03XJEkQwOFFbIU_ux1MjikXseLKkuu8oV3Ni3Vl1nmrJjbaS3axQlU4k5eFXy7GuhB5OUVAty1cwdneVIiCPCxlKEJtj79_iPDCUdWzFwkgaAey_qoiiiaZvNzmI-ADxPrpczedhgMoSOH0nDVVtW1d8yIa8l8vxWmVBjUHmBhZ4Cd0R-8FtuzghU-Fl9gDmp3NMZzjYbZQhx_XQAKg5jxtS9d3KRADKbL7jizIBNRWDfDywSVREVVle4n_ZfKV-6JL00IutzkH2o0U01jkeuT0HzgVI_U-oDCDoWN_z4xglsl3ht_uEtPEJOtgVN8p32TTB8GN7LhLmWZnNChHco1L70IX_fDN3urHUgTnI-KiM9J2QipWSwKy_pyM3uv7H9kJmSQtiN6ErS1dlqhUaeSgNwENczmOEEwJW9HqzEdAw7xVRRMX8RCL2Kd2y-rPijnHUYZXE-JtJl6cDLvY7uoZ1u1E__dW4Is5HX8oyXvVtconwMGRk72QBZpAyX7ugYDWljnblCLjmitcUZA70eq5JsMAPQ35yQtr1t8p190ZxIjqA3erltqyEu1KatYY9vsZd9hzKp8YBimV_3xcD4dS0NpRtkZY14ph3ca0NaTpaqyzoOR7_IZZZw1eTJXJIW4bCpFxuQbXug0jlE8kTlM-rm8pmYirs1BRWlYkk1Gd3sXkFcfU32NfDOxji5yc8wTXueuo5RWU3MuWes6t54rqK5ZgJJt5DpCMJJzofV0dEa7TOnDSi5TYn55NubKfJVk1fuJKcC3hTo_d-tcw56zdsCPqq7T8KCOfMgj1yKjY_QhuGnjR8c254_pCULIRZMljy8dAqAUFjEVRIi2P5kIdl1p7talnINrZ1CTGDTwYlytXzxa-JrzuEjtLJofXRgavJasEAHMYCtas02gaNByl8biGjXScZTJxKA8slHCzWAikUkexzggLkSnmicKWl5OKlSZ28Iaj4V2gfDpbgiG8DQh15JT21nwsGUQ-TpqX3h9gf70ohITRBOs738KzZKdqWJQvvNtDcUOofZRcE2ETTjj3CqL_2-MpCULnqytWMsOSosLSpS2-UxShrU8P-664oBpGV_-K23azTadTEZe-cybgbYFgwa7cw2JtkSpAsCxsQ2cKEk33GGXbQTnfLIbtR-RWnGDw8T6xChHQPvRx6YZ17j6GsvrZaN793yMgQP2fHFhSt6JFc7gUiMogsnBCRJ0IEI-i89tLc0f-qlOcSviqCXqLZTF5NghudBg942eFDzzhhu_TcZwJ-2_Zr7p_XBmpGFhIZU7rklm7PZAZ-jPzoWAroCXcDtL15K-bbDMYFsuVx5SFSQ0tBqVaiZF4sa3NBUpI5OOt3frzcsFCn_sYkOrasnXol0F80AYFie1XegzcoNs65lHLv5Lti2w2qXNNxyQykSv0tjP5OQBnXu6Laz4tenwkfidEDb1XwqHM73ilfxo71_zcb0RhGvGLX0TIt6F9mftJ29CvST9fHY2TTRlZ14lZDpamSulZddcTbRcsXZUwcunsAgUE9e3ZURBvUOGdaTUQFX3X9qQVOU_Xo2ubWE-5obuT9vO81D3m-3RtN3q0bY2yzwFml8GXMwbG3Etexda1bsc8ZhQrWmM2cV7Cv6LnTzYvkC4rktbrTxA-yvVEjG6WrLoNMPjrMwIm7EH2C85kbnPE_WnT0gFJPcjzlEBkoYZpk4JqoSA0_l71XNdkqTEApI5aA2LbBLdiaKRwj0K6vKappyjLDHyggOlOVW0DRW5UlgQm1BcoKdtwPOrev2Uwmd-Pbw8k1Lw7xqRlIeRBcjTXU8C-N-LH1ObFfCle0QVE4pr292eEQ5WTmFhWOJ0PhD1DuVhMTOyVLNNkcSiYJb6v5EU88MTczwPhI0LZ_HUqXWaHVoQ3WMprKHKOE31Kcb7l9KBfdujP1-1tIGwSnAgHnkbgnG3HIA-4HHG45ogVdDL43Rp7Pxd4C6Pyjp0zf2TnX4sNTi2oh3jHnWN2UCL8mlYciB2o-3F877a7cRHtdc5GELPJuS3yeWL7zS6OU8vKj456cAc9fWjiTmWo2b2-egU3SJkXUy-4hkA1RFJsS8Q3DtRUz3qI1EDTHik1FYaRy1xZYF-JS84XECItX2SVn1TOAGZLRxCVvP2crU8ehK7wzW1RYjqU9MOS5teBtJAz4RCqiq3bcFuvvD-89Nw2jrIb6rOa76_xR0usQyZj0PUpi_n7eHbgxjw9Vn8mCHWOqpueXqDmU1WN8W6exRmRuv3qN_1i0?></g></svg>